{
	"asset":{
		"generator":"Khronos glTF Blender I/O v3.6.27",
		"version":"2.0"
	},
	"scene":0,
	"scenes":[
		{
			"name":"Scene",
			"nodes":[
				5
			]
		}
	],
	"nodes":[
		{
			"mesh":0,
			"name":"Cylinder.004",
			"translation":[
				0,
				1.7579606771469116,
				0
			]
		},
		{
			"mesh":1,
			"name":"Cylinder.006",
			"translation":[
				0,
				-1.8407312631607056,
				0
			]
		},
		{
			"mesh":2,
			"name":"Plane.001",
			"rotation":[
				0.6253871321678162,
				0,
				-0.7803146243095398,
				0
			],
			"scale":[
				-0.9999998807907104,
				-0.9999998807907104,
				-1
			],
			"translation":[
				0,
				1.8323038816452026,
				0
			]
		},
		{
			"mesh":3,
			"name":"Uddakkiya_bottom",
			"translation":[
				0,
				1.8323038816452026,
				0
			]
		},
		{
			"mesh":4,
			"name":"Uddakkiya_top",
			"translation":[
				0,
				1.8323038816452026,
				0
			]
		},
		{
			"children":[
				0,
				1,
				2,
				3,
				4
			],
			"mesh":5,
			"name":"Cylinder.003",
			"translation":[
				0.19772274792194366,
				0.17765077948570251,
				0
			]
		}
	],
	"animations":[
		{
			"channels":[
				{
					"sampler":0,
					"target":{
						"node":5,
						"path":"translation"
					}
				},
				{
					"sampler":1,
					"target":{
						"node":5,
						"path":"rotation"
					}
				},
				{
					"sampler":2,
					"target":{
						"node":5,
						"path":"scale"
					}
				}
			],
			"name":"Udakkiya_Bottom_animation",
			"samplers":[
				{
					"input":24,
					"interpolation":"LINEAR",
					"output":25
				},
				{
					"input":26,
					"interpolation":"STEP",
					"output":27
				},
				{
					"input":26,
					"interpolation":"STEP",
					"output":28
				}
			]
		},
		{
			"channels":[
				{
					"sampler":0,
					"target":{
						"node":5,
						"path":"translation"
					}
				},
				{
					"sampler":1,
					"target":{
						"node":5,
						"path":"rotation"
					}
				},
				{
					"sampler":2,
					"target":{
						"node":5,
						"path":"scale"
					}
				}
			],
			"name":"Udakki __Animation_Variation_01",
			"samplers":[
				{
					"input":24,
					"interpolation":"LINEAR",
					"output":29
				},
				{
					"input":26,
					"interpolation":"STEP",
					"output":30
				},
				{
					"input":26,
					"interpolation":"STEP",
					"output":31
				}
			]
		},
		{
			"channels":[
				{
					"sampler":0,
					"target":{
						"node":5,
						"path":"translation"
					}
				},
				{
					"sampler":1,
					"target":{
						"node":5,
						"path":"rotation"
					}
				},
				{
					"sampler":2,
					"target":{
						"node":5,
						"path":"scale"
					}
				}
			],
			"name":"Udakki __Animation_Variation_02",
			"samplers":[
				{
					"input":26,
					"interpolation":"STEP",
					"output":32
				},
				{
					"input":24,
					"interpolation":"LINEAR",
					"output":33
				},
				{
					"input":26,
					"interpolation":"STEP",
					"output":34
				}
			]
		},
		{
			"channels":[
				{
					"sampler":0,
					"target":{
						"node":5,
						"path":"translation"
					}
				},
				{
					"sampler":1,
					"target":{
						"node":5,
						"path":"rotation"
					}
				},
				{
					"sampler":2,
					"target":{
						"node":5,
						"path":"scale"
					}
				}
			],
			"name":"Udakki __Animation_Variation_03",
			"samplers":[
				{
					"input":24,
					"interpolation":"LINEAR",
					"output":35
				},
				{
					"input":26,
					"interpolation":"STEP",
					"output":36
				},
				{
					"input":26,
					"interpolation":"STEP",
					"output":37
				}
			]
		},
		{
			"channels":[
				{
					"sampler":0,
					"target":{
						"node":5,
						"path":"translation"
					}
				},
				{
					"sampler":1,
					"target":{
						"node":5,
						"path":"rotation"
					}
				},
				{
					"sampler":2,
					"target":{
						"node":5,
						"path":"scale"
					}
				}
			],
			"name":"Udakki __Animation_Variation_04",
			"samplers":[
				{
					"input":26,
					"interpolation":"STEP",
					"output":38
				},
				{
					"input":24,
					"interpolation":"LINEAR",
					"output":39
				},
				{
					"input":26,
					"interpolation":"STEP",
					"output":40
				}
			]
		},
		{
			"channels":[
				{
					"sampler":0,
					"target":{
						"node":5,
						"path":"translation"
					}
				},
				{
					"sampler":1,
					"target":{
						"node":5,
						"path":"rotation"
					}
				},
				{
					"sampler":2,
					"target":{
						"node":5,
						"path":"scale"
					}
				}
			],
			"name":"Udakki __Animation_Variation_05",
			"samplers":[
				{
					"input":24,
					"interpolation":"LINEAR",
					"output":41
				},
				{
					"input":26,
					"interpolation":"STEP",
					"output":42
				},
				{
					"input":26,
					"interpolation":"STEP",
					"output":43
				}
			]
		},
		{
			"channels":[
				{
					"sampler":0,
					"target":{
						"node":5,
						"path":"translation"
					}
				},
				{
					"sampler":1,
					"target":{
						"node":5,
						"path":"rotation"
					}
				},
				{
					"sampler":2,
					"target":{
						"node":5,
						"path":"scale"
					}
				}
			],
			"name":"Udakki __Animation_Variation_06",
			"samplers":[
				{
					"input":24,
					"interpolation":"LINEAR",
					"output":44
				},
				{
					"input":26,
					"interpolation":"STEP",
					"output":45
				},
				{
					"input":26,
					"interpolation":"STEP",
					"output":46
				}
			]
		},
		{
			"channels":[
				{
					"sampler":0,
					"target":{
						"node":5,
						"path":"translation"
					}
				},
				{
					"sampler":1,
					"target":{
						"node":5,
						"path":"rotation"
					}
				},
				{
					"sampler":2,
					"target":{
						"node":5,
						"path":"scale"
					}
				}
			],
			"name":"Udakkiya_top_animation",
			"samplers":[
				{
					"input":24,
					"interpolation":"LINEAR",
					"output":47
				},
				{
					"input":26,
					"interpolation":"STEP",
					"output":48
				},
				{
					"input":26,
					"interpolation":"STEP",
					"output":49
				}
			]
		}
	],
	"materials":[
		{
			"doubleSided":true,
			"emissiveFactor":[
				1,
				1,
				1
			],
			"emissiveTexture":{
				"index":0
			},
			"name":"Material.001",
			"normalTexture":{
				"index":1
			},
			"pbrMetallicRoughness":{
				"baseColorTexture":{
					"index":2
				},
				"metallicRoughnessTexture":{
					"index":3
				}
			}
		}
	],
	"meshes":[
		{
			"name":"Cylinder.004",
			"primitives":[
				{
					"attributes":{
						"POSITION":0,
						"NORMAL":1,
						"TEXCOORD_0":2
					},
					"indices":3,
					"material":0
				}
			]
		},
		{
			"name":"Cylinder.006",
			"primitives":[
				{
					"attributes":{
						"POSITION":4,
						"NORMAL":5,
						"TEXCOORD_0":6
					},
					"indices":7,
					"material":0
				}
			]
		},
		{
			"name":"Plane.003",
			"primitives":[
				{
					"attributes":{
						"POSITION":8,
						"NORMAL":9,
						"TEXCOORD_0":10
					},
					"indices":11,
					"material":0
				}
			]
		},
		{
			"name":"Cylinder.007",
			"primitives":[
				{
					"attributes":{
						"POSITION":12,
						"NORMAL":13,
						"TEXCOORD_0":14
					},
					"indices":15,
					"material":0
				}
			]
		},
		{
			"name":"Cylinder.005",
			"primitives":[
				{
					"attributes":{
						"POSITION":16,
						"NORMAL":17,
						"TEXCOORD_0":18
					},
					"indices":19,
					"material":0
				}
			]
		},
		{
			"name":"Cylinder.003",
			"primitives":[
				{
					"attributes":{
						"POSITION":20,
						"NORMAL":21,
						"TEXCOORD_0":22
					},
					"indices":23,
					"material":0
				}
			]
		}
	],
	"textures":[
		{
			"sampler":0,
			"source":0
		},
		{
			"sampler":0,
			"source":1
		},
		{
			"sampler":0,
			"source":2
		},
		{
			"sampler":0,
			"source":3
		}
	],
	"images":[
		{
			"bufferView":4,
			"mimeType":"image/png",
			"name":"udkki_id_Material"
		},
		{
			"bufferView":5,
			"mimeType":"image/png",
			"name":"udkki_id_Material"
		},
		{
			"bufferView":6,
			"mimeType":"image/png",
			"name":"udkki_id_Material"
		},
		{
			"bufferView":7,
			"mimeType":"image/png",
			"name":"udkki_id_Material.001_Metallic-udkki_id_Material"
		}
	],
	"accessors":[
		{
			"bufferView":0,
			"componentType":5126,
			"count":676,
			"max":[
				1.4936670064926147,
				0.2518095374107361,
				1.4936670064926147
			],
			"min":[
				-1.4936670064926147,
				-0.12058670073747635,
				-1.4936670064926147
			],
			"type":"VEC3"
		},
		{
			"bufferView":1,
			"componentType":5126,
			"count":676,
			"type":"VEC3"
		},
		{
			"bufferView":2,
			"componentType":5126,
			"count":676,
			"type":"VEC2"
		},
		{
			"bufferView":3,
			"componentType":5123,
			"count":2682,
			"type":"SCALAR"
		},
		{
			"bufferView":8,
			"componentType":5126,
			"count":644,
			"max":[
				1.4936670064926147,
				0.2080554962158203,
				1.4936670064926147
			],
			"min":[
				-1.4936670064926147,
				-0.16434073448181152,
				-1.4936670064926147
			],
			"type":"VEC3"
		},
		{
			"bufferView":9,
			"componentType":5126,
			"count":644,
			"type":"VEC3"
		},
		{
			"bufferView":10,
			"componentType":5126,
			"count":644,
			"type":"VEC2"
		},
		{
			"bufferView":11,
			"componentType":5123,
			"count":2682,
			"type":"SCALAR"
		},
		{
			"bufferView":12,
			"componentType":5126,
			"count":1243,
			"max":[
				1.3955668210983276,
				0.10104890167713165,
				1.3126163482666016
			],
			"min":[
				-1.4320275783538818,
				-3.8688974380493164,
				-1.3976893424987793
			],
			"type":"VEC3"
		},
		{
			"bufferView":13,
			"componentType":5126,
			"count":1243,
			"type":"VEC3"
		},
		{
			"bufferView":14,
			"componentType":5126,
			"count":1243,
			"type":"VEC2"
		},
		{
			"bufferView":15,
			"componentType":5123,
			"count":6552,
			"type":"SCALAR"
		},
		{
			"bufferView":16,
			"componentType":5126,
			"count":32,
			"max":[
				1.0560240745544434,
				-3.8395960330963135,
				1.0560240745544434
			],
			"min":[
				-1.0560240745544434,
				-3.8395962715148926,
				-1.0560240745544434
			],
			"type":"VEC3"
		},
		{
			"bufferView":17,
			"componentType":5126,
			"count":32,
			"type":"VEC3"
		},
		{
			"bufferView":18,
			"componentType":5126,
			"count":32,
			"type":"VEC2"
		},
		{
			"bufferView":19,
			"componentType":5123,
			"count":90,
			"type":"SCALAR"
		},
		{
			"bufferView":20,
			"componentType":5126,
			"count":32,
			"max":[
				1.0560240745544434,
				0.17968671023845673,
				1.0560240745544434
			],
			"min":[
				-1.0560240745544434,
				0.17968657612800598,
				-1.0560240745544434
			],
			"type":"VEC3"
		},
		{
			"bufferView":21,
			"componentType":5126,
			"count":32,
			"type":"VEC3"
		},
		{
			"bufferView":22,
			"componentType":5126,
			"count":32,
			"type":"VEC2"
		},
		{
			"bufferView":23,
			"componentType":5123,
			"count":90,
			"type":"SCALAR"
		},
		{
			"bufferView":24,
			"componentType":5126,
			"count":790,
			"max":[
				1.0878450870513916,
				1.6533892154693604,
				1.0878450870513916
			],
			"min":[
				-1.0878450870513916,
				-1.6486907005310059,
				-1.0878450870513916
			],
			"type":"VEC3"
		},
		{
			"bufferView":25,
			"componentType":5126,
			"count":790,
			"type":"VEC3"
		},
		{
			"bufferView":26,
			"componentType":5126,
			"count":790,
			"type":"VEC2"
		},
		{
			"bufferView":27,
			"componentType":5123,
			"count":3828,
			"type":"SCALAR"
		},
		{
			"bufferView":28,
			"componentType":5126,
			"count":30,
			"max":[
				1.25
			],
			"min":[
				0.041666666666666664
			],
			"type":"SCALAR"
		},
		{
			"bufferView":29,
			"componentType":5126,
			"count":30,
			"type":"VEC3"
		},
		{
			"bufferView":30,
			"componentType":5126,
			"count":2,
			"max":[
				1.25
			],
			"min":[
				0.041666666666666664
			],
			"type":"SCALAR"
		},
		{
			"bufferView":31,
			"componentType":5126,
			"count":2,
			"type":"VEC4"
		},
		{
			"bufferView":32,
			"componentType":5126,
			"count":2,
			"type":"VEC3"
		},
		{
			"bufferView":33,
			"componentType":5126,
			"count":30,
			"type":"VEC3"
		},
		{
			"bufferView":34,
			"componentType":5126,
			"count":2,
			"type":"VEC4"
		},
		{
			"bufferView":35,
			"componentType":5126,
			"count":2,
			"type":"VEC3"
		},
		{
			"bufferView":36,
			"componentType":5126,
			"count":2,
			"type":"VEC3"
		},
		{
			"bufferView":37,
			"componentType":5126,
			"count":30,
			"type":"VEC4"
		},
		{
			"bufferView":38,
			"componentType":5126,
			"count":2,
			"type":"VEC3"
		},
		{
			"bufferView":39,
			"componentType":5126,
			"count":30,
			"type":"VEC3"
		},
		{
			"bufferView":40,
			"componentType":5126,
			"count":2,
			"type":"VEC4"
		},
		{
			"bufferView":41,
			"componentType":5126,
			"count":2,
			"type":"VEC3"
		},
		{
			"bufferView":42,
			"componentType":5126,
			"count":2,
			"type":"VEC3"
		},
		{
			"bufferView":43,
			"componentType":5126,
			"count":30,
			"type":"VEC4"
		},
		{
			"bufferView":44,
			"componentType":5126,
			"count":2,
			"type":"VEC3"
		},
		{
			"bufferView":45,
			"componentType":5126,
			"count":30,
			"type":"VEC3"
		},
		{
			"bufferView":46,
			"componentType":5126,
			"count":2,
			"type":"VEC4"
		},
		{
			"bufferView":47,
			"componentType":5126,
			"count":2,
			"type":"VEC3"
		},
		{
			"bufferView":48,
			"componentType":5126,
			"count":30,
			"type":"VEC3"
		},
		{
			"bufferView":49,
			"componentType":5126,
			"count":2,
			"type":"VEC4"
		},
		{
			"bufferView":50,
			"componentType":5126,
			"count":2,
			"type":"VEC3"
		},
		{
			"bufferView":51,
			"componentType":5126,
			"count":30,
			"type":"VEC3"
		},
		{
			"bufferView":52,
			"componentType":5126,
			"count":2,
			"type":"VEC4"
		},
		{
			"bufferView":53,
			"componentType":5126,
			"count":2,
			"type":"VEC3"
		}
	],
	"bufferViews":[
		{
			"buffer":0,
			"byteLength":8112,
			"byteOffset":0,
			"target":34962
		},
		{
			"buffer":0,
			"byteLength":8112,
			"byteOffset":8112,
			"target":34962
		},
		{
			"buffer":0,
			"byteLength":5408,
			"byteOffset":16224,
			"target":34962
		},
		{
			"buffer":0,
			"byteLength":5364,
			"byteOffset":21632,
			"target":34963
		},
		{
			"buffer":0,
			"byteLength":12332,
			"byteOffset":26996
		},
		{
			"buffer":0,
			"byteLength":909435,
			"byteOffset":39328
		},
		{
			"buffer":0,
			"byteLength":968932,
			"byteOffset":948764
		},
		{
			"buffer":0,
			"byteLength":616803,
			"byteOffset":1917696
		},
		{
			"buffer":0,
			"byteLength":7728,
			"byteOffset":2534500,
			"target":34962
		},
		{
			"buffer":0,
			"byteLength":7728,
			"byteOffset":2542228,
			"target":34962
		},
		{
			"buffer":0,
			"byteLength":5152,
			"byteOffset":2549956,
			"target":34962
		},
		{
			"buffer":0,
			"byteLength":5364,
			"byteOffset":2555108,
			"target":34963
		},
		{
			"buffer":0,
			"byteLength":14916,
			"byteOffset":2560472,
			"target":34962
		},
		{
			"buffer":0,
			"byteLength":14916,
			"byteOffset":2575388,
			"target":34962
		},
		{
			"buffer":0,
			"byteLength":9944,
			"byteOffset":2590304,
			"target":34962
		},
		{
			"buffer":0,
			"byteLength":13104,
			"byteOffset":2600248,
			"target":34963
		},
		{
			"buffer":0,
			"byteLength":384,
			"byteOffset":2613352,
			"target":34962
		},
		{
			"buffer":0,
			"byteLength":384,
			"byteOffset":2613736,
			"target":34962
		},
		{
			"buffer":0,
			"byteLength":256,
			"byteOffset":2614120,
			"target":34962
		},
		{
			"buffer":0,
			"byteLength":180,
			"byteOffset":2614376,
			"target":34963
		},
		{
			"buffer":0,
			"byteLength":384,
			"byteOffset":2614556,
			"target":34962
		},
		{
			"buffer":0,
			"byteLength":384,
			"byteOffset":2614940,
			"target":34962
		},
		{
			"buffer":0,
			"byteLength":256,
			"byteOffset":2615324,
			"target":34962
		},
		{
			"buffer":0,
			"byteLength":180,
			"byteOffset":2615580,
			"target":34963
		},
		{
			"buffer":0,
			"byteLength":9480,
			"byteOffset":2615760,
			"target":34962
		},
		{
			"buffer":0,
			"byteLength":9480,
			"byteOffset":2625240,
			"target":34962
		},
		{
			"buffer":0,
			"byteLength":6320,
			"byteOffset":2634720,
			"target":34962
		},
		{
			"buffer":0,
			"byteLength":7656,
			"byteOffset":2641040,
			"target":34963
		},
		{
			"buffer":0,
			"byteLength":120,
			"byteOffset":2648696
		},
		{
			"buffer":0,
			"byteLength":360,
			"byteOffset":2648816
		},
		{
			"buffer":0,
			"byteLength":8,
			"byteOffset":2649176
		},
		{
			"buffer":0,
			"byteLength":32,
			"byteOffset":2649184
		},
		{
			"buffer":0,
			"byteLength":24,
			"byteOffset":2649216
		},
		{
			"buffer":0,
			"byteLength":360,
			"byteOffset":2649240
		},
		{
			"buffer":0,
			"byteLength":32,
			"byteOffset":2649600
		},
		{
			"buffer":0,
			"byteLength":24,
			"byteOffset":2649632
		},
		{
			"buffer":0,
			"byteLength":24,
			"byteOffset":2649656
		},
		{
			"buffer":0,
			"byteLength":480,
			"byteOffset":2649680
		},
		{
			"buffer":0,
			"byteLength":24,
			"byteOffset":2650160
		},
		{
			"buffer":0,
			"byteLength":360,
			"byteOffset":2650184
		},
		{
			"buffer":0,
			"byteLength":32,
			"byteOffset":2650544
		},
		{
			"buffer":0,
			"byteLength":24,
			"byteOffset":2650576
		},
		{
			"buffer":0,
			"byteLength":24,
			"byteOffset":2650600
		},
		{
			"buffer":0,
			"byteLength":480,
			"byteOffset":2650624
		},
		{
			"buffer":0,
			"byteLength":24,
			"byteOffset":2651104
		},
		{
			"buffer":0,
			"byteLength":360,
			"byteOffset":2651128
		},
		{
			"buffer":0,
			"byteLength":32,
			"byteOffset":2651488
		},
		{
			"buffer":0,
			"byteLength":24,
			"byteOffset":2651520
		},
		{
			"buffer":0,
			"byteLength":360,
			"byteOffset":2651544
		},
		{
			"buffer":0,
			"byteLength":32,
			"byteOffset":2651904
		},
		{
			"buffer":0,
			"byteLength":24,
			"byteOffset":2651936
		},
		{
			"buffer":0,
			"byteLength":360,
			"byteOffset":2651960
		},
		{
			"buffer":0,
			"byteLength":32,
			"byteOffset":2652320
		},
		{
			"buffer":0,
			"byteLength":24,
			"byteOffset":2652352
		}
	],
	"samplers":[
		{
			"magFilter":9729,
			"minFilter":9987
		}
	],
	"buffers":[
		{
			"byteLength":2652376,
			"uri":"data:application/octet-stream;base64,"
		}
	]
}
